<?xml version="1.0" encoding="iso-8859-1"?>
<!-- Uploaded to: SVG Repo, www.svgrepo.com, Generator: SVG Repo Mixer Tools -->
<!DOCTYPE svg PUBLIC "-//W3C//DTD SVG 1.1//EN" "http://www.w3.org/Graphics/SVG/1.1/DTD/svg11.dtd">
<svg fill="#000000" version="1.1" id="Capa_1" xmlns="http://www.w3.org/2000/svg" xmlns:xlink="http://www.w3.org/1999/xlink" 
	 width="800px" height="800px" viewBox="0 0 172.038 172.038"
	 xml:space="preserve">
<g>
	<path d="M79.287,159.943c0.006,0,0.012,0,0.019,0l-0.013,0.006L79.287,159.943z M131.627,149.549
		c-12.167,0-23.48-6.527-29.521-17.025c-4.543-7.849-5.748-17.013-3.386-25.805c1.924-7.161,6.107-13.281,11.819-17.793
		c-4.08-1.814-8.36-3.35-12.806-4.476c13.518-9.097,22.834-27.03,22.834-43.178C120.568,18.483,102.082,0,79.306,0
		C56.517,0,38.033,18.474,38.033,41.272c0,16.148,9.31,34.081,22.834,43.178c-32.33,8.202-56.285,36.267-56.285,57.062
		c0,12.288,37.354,18.426,74.705,18.426l-20.919-20.929l17.622-42.6h-0.188l-6.847-7.849c3.318,1.193,6.765,1.899,10.345,1.899
		c3.574,0,7.015-0.706,10.318-1.894l-6.844,7.837h-0.171l17.622,42.6l-20.925,20.935c23.526-0.006,47.054-2.436,61.242-7.307
		l-2.217-3.837C136.114,149.245,133.88,149.549,131.627,149.549z M116.105,88.743c14.76-8.513,33.722-3.446,42.246,11.313
		c8.519,14.754,3.446,33.709-11.325,42.229c-14.755,8.519-33.704,3.459-42.229-11.326C96.272,116.217,101.352,97.268,116.105,88.743
		z M118.675,93.17c-12.33,7.112-16.568,22.92-9.444,35.238c7.118,12.324,22.914,16.574,35.232,9.462
		c12.324-7.112,16.55-22.932,9.45-35.244C146.801,90.308,130.993,86.076,118.675,93.17z M154.783,140.391l-13.292,7.673
		l10.241,17.72l13.287-7.685L154.783,140.391z M166.432,160.521l-13.311,7.673c2.131,3.678,6.832,4.933,10.498,2.813
		C167.278,168.913,168.545,164.206,166.432,160.521z"/>
</g>
</svg>